<svg width="208" height="58" viewBox="0 0 208 58" fill="none" xmlns="http://www.w3.org/2000/svg">
<g filter="url(#filter0_d_4_5)">
<path d="M7.368 40.344H4.344V13.128H7.368V10.152H10.344V7.224H19.752V10.152H22.68V13.128H25.656V40.344H22.68V45.768H25.656V49.32H19.224V46.344H10.344V43.32H7.368V40.344ZM10.824 39.864V42.792H16.248V40.344H13.272V33.912H16.776V39.864H22.2V13.656H19.224V10.68H10.824V13.656H7.896V39.864H10.824Z" fill="#FF5C00"/>
<path d="M7.368 40.344H7.868V39.844H7.368V40.344ZM4.344 40.344H3.844V40.844H4.344V40.344ZM4.344 13.128V12.628H3.844V13.128H4.344ZM7.368 13.128V13.628H7.868V13.128H7.368ZM7.368 10.152V9.652H6.868V10.152H7.368ZM10.344 10.152V10.652H10.844V10.152H10.344ZM10.344 7.224V6.724H9.844V7.224H10.344ZM19.752 7.224H20.252V6.724H19.752V7.224ZM19.752 10.152H19.252V10.652H19.752V10.152ZM22.68 10.152H23.18V9.652H22.68V10.152ZM22.68 13.128H22.18V13.628H22.68V13.128ZM25.656 13.128H26.156V12.628H25.656V13.128ZM25.656 40.344V40.844H26.156V40.344H25.656ZM22.68 40.344V39.844H22.18V40.344H22.68ZM22.68 45.768H22.18V46.268H22.68V45.768ZM25.656 45.768H26.156V45.268H25.656V45.768ZM25.656 49.32V49.82H26.156V49.32H25.656ZM19.224 49.32H18.724V49.82H19.224V49.32ZM19.224 46.344H19.724V45.844H19.224V46.344ZM10.344 46.344H9.844V46.844H10.344V46.344ZM10.344 43.32H10.844V42.82H10.344V43.32ZM7.368 43.32H6.868V43.82H7.368V43.32ZM10.824 39.864H11.324V39.364H10.824V39.864ZM10.824 42.792H10.324V43.292H10.824V42.792ZM16.248 42.792V43.292H16.748V42.792H16.248ZM16.248 40.344H16.748V39.844H16.248V40.344ZM13.272 40.344H12.772V40.844H13.272V40.344ZM13.272 33.912V33.412H12.772V33.912H13.272ZM16.776 33.912H17.276V33.412H16.776V33.912ZM16.776 39.864H16.276V40.364H16.776V39.864ZM22.2 39.864V40.364H22.7V39.864H22.2ZM22.2 13.656H22.7V13.156H22.2V13.656ZM19.224 13.656H18.724V14.156H19.224V13.656ZM19.224 10.68H19.724V10.18H19.224V10.68ZM10.824 10.68V10.18H10.324V10.68H10.824ZM10.824 13.656V14.156H11.324V13.656H10.824ZM7.896 13.656V13.156H7.396V13.656H7.896ZM7.896 39.864H7.396V40.364H7.896V39.864ZM7.368 39.844H4.344V40.844H7.368V39.844ZM4.844 40.344V13.128H3.844V40.344H4.844ZM4.344 13.628H7.368V12.628H4.344V13.628ZM7.868 13.128V10.152H6.868V13.128H7.868ZM7.368 10.652H10.344V9.652H7.368V10.652ZM10.844 10.152V7.224H9.844V10.152H10.844ZM10.344 7.724H19.752V6.724H10.344V7.724ZM19.252 7.224V10.152H20.252V7.224H19.252ZM19.752 10.652H22.68V9.652H19.752V10.652ZM22.18 10.152V13.128H23.18V10.152H22.18ZM22.68 13.628H25.656V12.628H22.68V13.628ZM25.156 13.128V40.344H26.156V13.128H25.156ZM25.656 39.844H22.68V40.844H25.656V39.844ZM22.18 40.344V45.768H23.18V40.344H22.18ZM22.68 46.268H25.656V45.268H22.68V46.268ZM25.156 45.768V49.32H26.156V45.768H25.156ZM25.656 48.82H19.224V49.82H25.656V48.82ZM19.724 49.32V46.344H18.724V49.32H19.724ZM19.224 45.844H10.344V46.844H19.224V45.844ZM10.844 46.344V43.32H9.844V46.344H10.844ZM10.344 42.82H7.368V43.82H10.344V42.82ZM7.868 43.32V40.344H6.868V43.32H7.868ZM10.324 39.864V42.792H11.324V39.864H10.324ZM10.824 43.292H16.248V42.292H10.824V43.292ZM16.748 42.792V40.344H15.748V42.792H16.748ZM16.248 39.844H13.272V40.844H16.248V39.844ZM13.772 40.344V33.912H12.772V40.344H13.772ZM13.272 34.412H16.776V33.412H13.272V34.412ZM16.276 33.912V39.864H17.276V33.912H16.276ZM16.776 40.364H22.2V39.364H16.776V40.364ZM22.7 39.864V13.656H21.7V39.864H22.7ZM22.2 13.156H19.224V14.156H22.2V13.156ZM19.724 13.656V10.68H18.724V13.656H19.724ZM19.224 10.18H10.824V11.18H19.224V10.18ZM10.324 10.68V13.656H11.324V10.68H10.324ZM10.824 13.156H7.896V14.156H10.824V13.156ZM7.396 13.656V39.864H8.396V13.656H7.396ZM7.896 40.364H10.824V39.364H7.896V40.364Z" fill="#FF5C00"/>
</g>
<path d="M53.6934 37.368H50.6694V19.08H54.2214V36.888H56.6694V27.96H59.5974V19.08H63.1014V27.96H66.0774V36.888H68.5254V19.08H71.9814V37.368H69.0054V46.344H65.5494V37.368H62.5734V28.488H60.1254V37.368H57.1494V46.344H53.6934V37.368ZM84.1734 40.344H81.1494V24.984H84.1734V22.056H87.1494V19.08H96.5574V22.056H99.4854V24.984H102.461V34.44H84.7014V39.864H87.6294V42.792H96.0294V39.864H99.0054V36.888H102.461V40.344H99.4854V43.32H96.5574V46.344H87.1494V43.32H84.1734V40.344ZM99.0054 30.936V25.512H96.0294V22.536H87.6294V25.512H84.7014V30.936H99.0054ZM114.605 19.08H118.061V22.056H120.509V19.08H129.917V22.536H121.037V25.512H118.061V46.344H114.605V19.08ZM149.597 22.536H143.597V19.08H149.597V10.152H153.053V19.08H161.933V22.536H153.053V42.792H161.933V46.344H152.525V43.32H149.597V22.536ZM181.517 45.768V40.344H178.589V34.44H175.613V25.512H172.589V19.08H176.141V24.984H179.069V33.912H182.045V39.864H184.493V33.912H187.469V24.984H190.445V19.08H193.901V25.512H190.925V34.44H187.997V40.344H185.021V46.344H182.045V49.32H172.589V45.768H181.517Z" fill="white"/>
<path d="M53.6934 37.368H54.6934V36.368H53.6934V37.368ZM50.6694 37.368H49.6694V38.368H50.6694V37.368ZM50.6694 19.08V18.08H49.6694V19.08H50.6694ZM54.2214 19.08H55.2214V18.08H54.2214V19.08ZM54.2214 36.888H53.2214V37.888H54.2214V36.888ZM56.6694 36.888V37.888H57.6694V36.888H56.6694ZM56.6694 27.96V26.96H55.6694V27.96H56.6694ZM59.5974 27.96V28.96H60.5974V27.96H59.5974ZM59.5974 19.08V18.08H58.5974V19.08H59.5974ZM63.1014 19.08H64.1014V18.08H63.1014V19.08ZM63.1014 27.96H62.1014V28.96H63.1014V27.96ZM66.0774 27.96H67.0774V26.96H66.0774V27.96ZM66.0774 36.888H65.0774V37.888H66.0774V36.888ZM68.5254 36.888V37.888H69.5254V36.888H68.5254ZM68.5254 19.08V18.08H67.5254V19.08H68.5254ZM71.9814 19.08H72.9814V18.08H71.9814V19.08ZM71.9814 37.368V38.368H72.9814V37.368H71.9814ZM69.0054 37.368V36.368H68.0054V37.368H69.0054ZM69.0054 46.344V47.344H70.0054V46.344H69.0054ZM65.5494 46.344H64.5494V47.344H65.5494V46.344ZM65.5494 37.368H66.5494V36.368H65.5494V37.368ZM62.5734 37.368H61.5734V38.368H62.5734V37.368ZM62.5734 28.488H63.5734V27.488H62.5734V28.488ZM60.1254 28.488V27.488H59.1254V28.488H60.1254ZM60.1254 37.368V38.368H61.1254V37.368H60.1254ZM57.1494 37.368V36.368H56.1494V37.368H57.1494ZM57.1494 46.344V47.344H58.1494V46.344H57.1494ZM53.6934 46.344H52.6934V47.344H53.6934V46.344ZM53.6934 36.368H50.6694V38.368H53.6934V36.368ZM51.6694 37.368V19.08H49.6694V37.368H51.6694ZM50.6694 20.08H54.2214V18.08H50.6694V20.08ZM53.2214 19.08V36.888H55.2214V19.08H53.2214ZM54.2214 37.888H56.6694V35.888H54.2214V37.888ZM57.6694 36.888V27.96H55.6694V36.888H57.6694ZM56.6694 28.96H59.5974V26.96H56.6694V28.96ZM60.5974 27.96V19.08H58.5974V27.96H60.5974ZM59.5974 20.08H63.1014V18.08H59.5974V20.08ZM62.1014 19.08V27.96H64.1014V19.08H62.1014ZM63.1014 28.96H66.0774V26.96H63.1014V28.96ZM65.0774 27.96V36.888H67.0774V27.96H65.0774ZM66.0774 37.888H68.5254V35.888H66.0774V37.888ZM69.5254 36.888V19.08H67.5254V36.888H69.5254ZM68.5254 20.08H71.9814V18.08H68.5254V20.08ZM70.9814 19.08V37.368H72.9814V19.08H70.9814ZM71.9814 36.368H69.0054V38.368H71.9814V36.368ZM68.0054 37.368V46.344H70.0054V37.368H68.0054ZM69.0054 45.344H65.5494V47.344H69.0054V45.344ZM66.5494 46.344V37.368H64.5494V46.344H66.5494ZM65.5494 36.368H62.5734V38.368H65.5494V36.368ZM63.5734 37.368V28.488H61.5734V37.368H63.5734ZM62.5734 27.488H60.1254V29.488H62.5734V27.488ZM59.1254 28.488V37.368H61.1254V28.488H59.1254ZM60.1254 36.368H57.1494V38.368H60.1254V36.368ZM56.1494 37.368V46.344H58.1494V37.368H56.1494ZM57.1494 45.344H53.6934V47.344H57.1494V45.344ZM54.6934 46.344V37.368H52.6934V46.344H54.6934ZM84.1734 40.344H85.1734V39.344H84.1734V40.344ZM81.1494 40.344H80.1494V41.344H81.1494V40.344ZM81.1494 24.984V23.984H80.1494V24.984H81.1494ZM84.1734 24.984V25.984H85.1734V24.984H84.1734ZM84.1734 22.056V21.056H83.1734V22.056H84.1734ZM87.1494 22.056V23.056H88.1494V22.056H87.1494ZM87.1494 19.08V18.08H86.1494V19.08H87.1494ZM96.5574 19.08H97.5574V18.08H96.5574V19.08ZM96.5574 22.056H95.5574V23.056H96.5574V22.056ZM99.4854 22.056H100.485V21.056H99.4854V22.056ZM99.4854 24.984H98.4854V25.984H99.4854V24.984ZM102.461 24.984H103.461V23.984H102.461V24.984ZM102.461 34.44V35.44H103.461V34.44H102.461ZM84.7014 34.44V33.44H83.7014V34.44H84.7014ZM84.7014 39.864H83.7014V40.864H84.7014V39.864ZM87.6294 39.864H88.6294V38.864H87.6294V39.864ZM87.6294 42.792H86.6294V43.792H87.6294V42.792ZM96.0294 42.792V43.792H97.0294V42.792H96.0294ZM96.0294 39.864V38.864H95.0294V39.864H96.0294ZM99.0054 39.864V40.864H100.005V39.864H99.0054ZM99.0054 36.888V35.888H98.0054V36.888H99.0054ZM102.461 36.888H103.461V35.888H102.461V36.888ZM102.461 40.344V41.344H103.461V40.344H102.461ZM99.4854 40.344V39.344H98.4854V40.344H99.4854ZM99.4854 43.32V44.32H100.485V43.32H99.4854ZM96.5574 43.32V42.32H95.5574V43.32H96.5574ZM96.5574 46.344V47.344H97.5574V46.344H96.5574ZM87.1494 46.344H86.1494V47.344H87.1494V46.344ZM87.1494 43.32H88.1494V42.32H87.1494V43.32ZM84.1734 43.32H83.1734V44.32H84.1734V43.32ZM99.0054 30.936V31.936H100.005V30.936H99.0054ZM99.0054 25.512H100.005V24.512H99.0054V25.512ZM96.0294 25.512H95.0294V26.512H96.0294V25.512ZM96.0294 22.536H97.0294V21.536H96.0294V22.536ZM87.6294 22.536V21.536H86.6294V22.536H87.6294ZM87.6294 25.512V26.512H88.6294V25.512H87.6294ZM84.7014 25.512V24.512H83.7014V25.512H84.7014ZM84.7014 30.936H83.7014V31.936H84.7014V30.936ZM84.1734 39.344H81.1494V41.344H84.1734V39.344ZM82.1494 40.344V24.984H80.1494V40.344H82.1494ZM81.1494 25.984H84.1734V23.984H81.1494V25.984ZM85.1734 24.984V22.056H83.1734V24.984H85.1734ZM84.1734 23.056H87.1494V21.056H84.1734V23.056ZM88.1494 22.056V19.08H86.1494V22.056H88.1494ZM87.1494 20.08H96.5574V18.08H87.1494V20.08ZM95.5574 19.08V22.056H97.5574V19.08H95.5574ZM96.5574 23.056H99.4854V21.056H96.5574V23.056ZM98.4854 22.056V24.984H100.485V22.056H98.4854ZM99.4854 25.984H102.461V23.984H99.4854V25.984ZM101.461 24.984V34.44H103.461V24.984H101.461ZM102.461 33.44H84.7014V35.44H102.461V33.44ZM83.7014 34.44V39.864H85.7014V34.44H83.7014ZM84.7014 40.864H87.6294V38.864H84.7014V40.864ZM86.6294 39.864V42.792H88.6294V39.864H86.6294ZM87.6294 43.792H96.0294V41.792H87.6294V43.792ZM97.0294 42.792V39.864H95.0294V42.792H97.0294ZM96.0294 40.864H99.0054V38.864H96.0294V40.864ZM100.005 39.864V36.888H98.0054V39.864H100.005ZM99.0054 37.888H102.461V35.888H99.0054V37.888ZM101.461 36.888V40.344H103.461V36.888H101.461ZM102.461 39.344H99.4854V41.344H102.461V39.344ZM98.4854 40.344V43.32H100.485V40.344H98.4854ZM99.4854 42.32H96.5574V44.32H99.4854V42.32ZM95.5574 43.32V46.344H97.5574V43.32H95.5574ZM96.5574 45.344H87.1494V47.344H96.5574V45.344ZM88.1494 46.344V43.32H86.1494V46.344H88.1494ZM87.1494 42.32H84.1734V44.32H87.1494V42.32ZM85.1734 43.32V40.344H83.1734V43.32H85.1734ZM100.005 30.936V25.512H98.0054V30.936H100.005ZM99.0054 24.512H96.0294V26.512H99.0054V24.512ZM97.0294 25.512V22.536H95.0294V25.512H97.0294ZM96.0294 21.536H87.6294V23.536H96.0294V21.536ZM86.6294 22.536V25.512H88.6294V22.536H86.6294ZM87.6294 24.512H84.7014V26.512H87.6294V24.512ZM83.7014 25.512V30.936H85.7014V25.512H83.7014ZM84.7014 31.936H99.0054V29.936H84.7014V31.936ZM114.605 19.08V18.08H113.605V19.08H114.605ZM118.061 19.08H119.061V18.08H118.061V19.08ZM118.061 22.056H117.061V23.056H118.061V22.056ZM120.509 22.056V23.056H121.509V22.056H120.509ZM120.509 19.08V18.08H119.509V19.08H120.509ZM129.917 19.08H130.917V18.08H129.917V19.08ZM129.917 22.536V23.536H130.917V22.536H129.917ZM121.037 22.536V21.536H120.037V22.536H121.037ZM121.037 25.512V26.512H122.037V25.512H121.037ZM118.061 25.512V24.512H117.061V25.512H118.061ZM118.061 46.344V47.344H119.061V46.344H118.061ZM114.605 46.344H113.605V47.344H114.605V46.344ZM114.605 20.08H118.061V18.08H114.605V20.08ZM117.061 19.08V22.056H119.061V19.08H117.061ZM118.061 23.056H120.509V21.056H118.061V23.056ZM121.509 22.056V19.08H119.509V22.056H121.509ZM120.509 20.08H129.917V18.08H120.509V20.08ZM128.917 19.08V22.536H130.917V19.08H128.917ZM129.917 21.536H121.037V23.536H129.917V21.536ZM120.037 22.536V25.512H122.037V22.536H120.037ZM121.037 24.512H118.061V26.512H121.037V24.512ZM117.061 25.512V46.344H119.061V25.512H117.061ZM118.061 45.344H114.605V47.344H118.061V45.344ZM115.605 46.344V19.08H113.605V46.344H115.605ZM149.597 22.536H150.597V21.536H149.597V22.536ZM143.597 22.536H142.597V23.536H143.597V22.536ZM143.597 19.08V18.08H142.597V19.08H143.597ZM149.597 19.08V20.08H150.597V19.08H149.597ZM149.597 10.152V9.152H148.597V10.152H149.597ZM153.053 10.152H154.053V9.152H153.053V10.152ZM153.053 19.08H152.053V20.08H153.053V19.08ZM161.933 19.08H162.933V18.08H161.933V19.08ZM161.933 22.536V23.536H162.933V22.536H161.933ZM153.053 22.536V21.536H152.053V22.536H153.053ZM153.053 42.792H152.053V43.792H153.053V42.792ZM161.933 42.792H162.933V41.792H161.933V42.792ZM161.933 46.344V47.344H162.933V46.344H161.933ZM152.525 46.344H151.525V47.344H152.525V46.344ZM152.525 43.32H153.525V42.32H152.525V43.32ZM149.597 43.32H148.597V44.32H149.597V43.32ZM149.597 21.536H143.597V23.536H149.597V21.536ZM144.597 22.536V19.08H142.597V22.536H144.597ZM143.597 20.08H149.597V18.08H143.597V20.08ZM150.597 19.08V10.152H148.597V19.08H150.597ZM149.597 11.152H153.053V9.152H149.597V11.152ZM152.053 10.152V19.08H154.053V10.152H152.053ZM153.053 20.08H161.933V18.08H153.053V20.08ZM160.933 19.08V22.536H162.933V19.08H160.933ZM161.933 21.536H153.053V23.536H161.933V21.536ZM152.053 22.536V42.792H154.053V22.536H152.053ZM153.053 43.792H161.933V41.792H153.053V43.792ZM160.933 42.792V46.344H162.933V42.792H160.933ZM161.933 45.344H152.525V47.344H161.933V45.344ZM153.525 46.344V43.32H151.525V46.344H153.525ZM152.525 42.32H149.597V44.32H152.525V42.32ZM150.597 43.32V22.536H148.597V43.32H150.597ZM181.517 45.768V46.768H182.517V45.768H181.517ZM181.517 40.344H182.517V39.344H181.517V40.344ZM178.589 40.344H177.589V41.344H178.589V40.344ZM178.589 34.44H179.589V33.44H178.589V34.44ZM175.613 34.44H174.613V35.44H175.613V34.44ZM175.613 25.512H176.613V24.512H175.613V25.512ZM172.589 25.512H171.589V26.512H172.589V25.512ZM172.589 19.08V18.08H171.589V19.08H172.589ZM176.141 19.08H177.141V18.08H176.141V19.08ZM176.141 24.984H175.141V25.984H176.141V24.984ZM179.069 24.984H180.069V23.984H179.069V24.984ZM179.069 33.912H178.069V34.912H179.069V33.912ZM182.045 33.912H183.045V32.912H182.045V33.912ZM182.045 39.864H181.045V40.864H182.045V39.864ZM184.493 39.864V40.864H185.493V39.864H184.493ZM184.493 33.912V32.912H183.493V33.912H184.493ZM187.469 33.912V34.912H188.469V33.912H187.469ZM187.469 24.984V23.984H186.469V24.984H187.469ZM190.445 24.984V25.984H191.445V24.984H190.445ZM190.445 19.08V18.08H189.445V19.08H190.445ZM193.901 19.08H194.901V18.08H193.901V19.08ZM193.901 25.512V26.512H194.901V25.512H193.901ZM190.925 25.512V24.512H189.925V25.512H190.925ZM190.925 34.44V35.44H191.925V34.44H190.925ZM187.997 34.44V33.44H186.997V34.44H187.997ZM187.997 40.344V41.344H188.997V40.344H187.997ZM185.021 40.344V39.344H184.021V40.344H185.021ZM185.021 46.344V47.344H186.021V46.344H185.021ZM182.045 46.344V45.344H181.045V46.344H182.045ZM182.045 49.32V50.32H183.045V49.32H182.045ZM172.589 49.32H171.589V50.32H172.589V49.32ZM172.589 45.768V44.768H171.589V45.768H172.589ZM182.517 45.768V40.344H180.517V45.768H182.517ZM181.517 39.344H178.589V41.344H181.517V39.344ZM179.589 40.344V34.44H177.589V40.344H179.589ZM178.589 33.44H175.613V35.44H178.589V33.44ZM176.613 34.44V25.512H174.613V34.44H176.613ZM175.613 24.512H172.589V26.512H175.613V24.512ZM173.589 25.512V19.08H171.589V25.512H173.589ZM172.589 20.08H176.141V18.08H172.589V20.08ZM175.141 19.08V24.984H177.141V19.08H175.141ZM176.141 25.984H179.069V23.984H176.141V25.984ZM178.069 24.984V33.912H180.069V24.984H178.069ZM179.069 34.912H182.045V32.912H179.069V34.912ZM181.045 33.912V39.864H183.045V33.912H181.045ZM182.045 40.864H184.493V38.864H182.045V40.864ZM185.493 39.864V33.912H183.493V39.864H185.493ZM184.493 34.912H187.469V32.912H184.493V34.912ZM188.469 33.912V24.984H186.469V33.912H188.469ZM187.469 25.984H190.445V23.984H187.469V25.984ZM191.445 24.984V19.08H189.445V24.984H191.445ZM190.445 20.08H193.901V18.08H190.445V20.08ZM192.901 19.08V25.512H194.901V19.08H192.901ZM193.901 24.512H190.925V26.512H193.901V24.512ZM189.925 25.512V34.44H191.925V25.512H189.925ZM190.925 33.44H187.997V35.44H190.925V33.44ZM186.997 34.44V40.344H188.997V34.44H186.997ZM187.997 39.344H185.021V41.344H187.997V39.344ZM184.021 40.344V46.344H186.021V40.344H184.021ZM185.021 45.344H182.045V47.344H185.021V45.344ZM181.045 46.344V49.32H183.045V46.344H181.045ZM182.045 48.32H172.589V50.32H182.045V48.32ZM173.589 49.32V45.768H171.589V49.32H173.589ZM172.589 46.768H181.517V44.768H172.589V46.768Z" fill="white"/>
<defs>
<filter id="filter0_d_4_5" x="0.343994" y="7.224" width="29.312" height="50.096" filterUnits="userSpaceOnUse" color-interpolation-filters="sRGB">
<feFlood flood-opacity="0" result="BackgroundImageFix"/>
<feColorMatrix in="SourceAlpha" type="matrix" values="0 0 0 0 0 0 0 0 0 0 0 0 0 0 0 0 0 0 127 0" result="hardAlpha"/>
<feOffset dy="4"/>
<feGaussianBlur stdDeviation="2"/>
<feComposite in2="hardAlpha" operator="out"/>
<feColorMatrix type="matrix" values="0 0 0 0 0 0 0 0 0 0 0 0 0 0 0 0 0 0 0.25 0"/>
<feBlend mode="normal" in2="BackgroundImageFix" result="effect1_dropShadow_4_5"/>
<feBlend mode="normal" in="SourceGraphic" in2="effect1_dropShadow_4_5" result="shape"/>
</filter>
</defs>
</svg>
